<?xml version="1.0" encoding="utf-8"?>
<!-- Generator: Adobe Illustrator 22.0.1, SVG Export Plug-In . SVG Version: 6.00 Build 0)  -->
<svg version="1.1" id="Layer_3" xmlns="http://www.w3.org/2000/svg" xmlns:xlink="http://www.w3.org/1999/xlink" x="0px" y="0px"
	 viewBox="0 0 250 250" style="enable-background:new 0 0 250 250;" xml:space="preserve">
<style type="text/css">
	.st0{fill:#5FA8DC;}
	.st1{fill:#FFFFFF;}
</style>
<g>
	<path class="st0" d="M209.7,90.9l-129.4-76C54-0.5,20.8,18.5,20.8,49v152c0,30.5,33.2,49.5,59.5,34.1l129.4-76
		C235.7,143.8,235.7,106.2,209.7,90.9z"/>
	<path class="st1" d="M70.6,218.6l29.7-17.4l38.6-22.7c7.5-4.4,8-15.1,1-20.2l-7.6-5.5l-67-48.7V66.4c0-3.8,4.1-6.1,7.4-4.2
		l99.8,58.6c3.2,1.9,3.2,6.5,0,8.4l-13.1,7.7v29.5l0.4-0.3l40.2-23.6c9.1-5.3,10.1-14.1,10.1-17.6c0-3.5-1-12.2-10.1-17.6l-129.4-76
		c-9.2-5.4-17.4-1.9-20.5-0.1c-3.1,1.8-10.3,7-10.3,17.7v57.7v15.3v0.2l26.6,19.2l38.2,27.8l-16,9.4l-16,9.4
		c-3.3,1.9-7.4-0.4-7.4-4.2v-16.5l-25.5-18.3V201c0,10.7,7.2,15.9,10.3,17.7C53.3,220.5,61.4,224,70.6,218.6z"/>
</g>
</svg>
