<?xml version="1.0" encoding="utf-8"?>
<!-- Generator: Adobe Illustrator 22.0.1, SVG Export Plug-In . SVG Version: 6.00 Build 0)  -->
<svg version="1.1" xmlns="http://www.w3.org/2000/svg" xmlns:xlink="http://www.w3.org/1999/xlink" x="0px" y="0px"
	 viewBox="0 0 1214 240" style="enable-background:new 0 0 1214 240;" xml:space="preserve">
<style type="text/css">
	.st0{fill:#5FA8DC;}
	.st1{fill:#FFFFFF;}
	.st2{fill:#595A5C;}
	.st3{fill:#5FA7DB;}
</style>
<g id="Layer_2">
</g>
<g id="Layer_3">
	<g>
		<g>
			<g>
				<g>
					<path class="st0" d="M343.1,96c-17.2,0-27.5,10.4-27.5,27.8v38.4h11.6v-38.4c0-11.1,5.5-16.9,15.9-16.9s15.9,5.8,15.9,16.9v2.5
						h11.4V124C370.4,106.5,360.2,96,343.1,96z"/>
					<path class="st0" d="M416.2,96c-10,0-18.5,3.2-25,9.7c-6.4,6.4-9.7,14.6-9.7,24.3c0,9.8,3.3,18,9.7,24.4
						c6.5,6.3,14.9,9.5,25,9.5c14.4,0,26.5-7.6,31.7-19.8l1-2.2h-12.5l-0.5,0.8c-3.8,6.8-10.4,10.2-19.7,10.2
						c-12,0-20.9-7.4-22.7-18.6h57.1v-4.4c0-9.7-3.3-17.8-9.7-24.3C434.5,99.3,426.2,96,416.2,96z M393.9,123.6
						c2.4-10.2,11-16.7,22.3-16.7c11.2,0,19.8,6.5,22.2,16.7H393.9z"/>
					<path class="st0" d="M496.3,96c-10,0-18.5,3.2-25,9.7c-6.4,6.4-9.7,14.6-9.7,24.3c0,10.1,3.3,18.4,9.7,24.7
						c6.4,6.2,14.4,9.3,23.7,9.3c10.5,0,19.6-4.5,24.9-12v10.3h10.9v-31.9c0-10-3.3-18.3-9.7-24.8C514.9,99.2,506.5,96,496.3,96z
						 M513,146.4c-4.4,4.4-9.8,6.5-16.6,6.5c-6.8,0-12.3-2.1-16.6-6.5c-4.2-4.2-6.4-9.8-6.4-16.5c0-6.7,2.1-12.3,6.4-16.5
						c4.4-4.4,9.8-6.5,16.6-6.5c6.8,0,12.3,2.1,16.6,6.5c4.2,4.2,6.4,9.8,6.4,16.5C519.3,136.7,517.2,142.2,513,146.4z"/>
					<path class="st0" d="M612.7,96c-9.8,0-17.7,4.3-22.1,11.9C586,100.2,578.3,96,568.4,96c-16.3,0-26.5,11-26.5,28.7v37.5h11.6
						v-37.5c0-11.3,5.7-17.8,15.5-17.8c9.9,0,15.8,6.6,15.8,17.8v37.5h11.6v-37.5c0-11.1,5.9-17.8,15.7-17.8
						c9.9,0,15.5,6.5,15.5,17.8v37.5h11.6v-37.5C639.2,107,629,96,612.7,96z"/>
					<g>
						<path class="st0" d="M291.7,101.8l-69-40.5c-14-8.2-31.7,1.9-31.7,18.2v81.1c0,16.3,17.7,26.4,31.7,18.2l69-40.5
							C305.6,130,305.6,110,291.7,101.8z"/>
						<path class="st1" d="M217.5,169.9l15.8-9.3l20.6-12.1c4-2.4,4.3-8,0.5-10.8l-4-2.9l-35.7-26V88.7c0-2,2.2-3.3,3.9-2.2
							l53.2,31.3c1.7,1,1.7,3.5,0,4.5l-7,4.1v15.8l0.2-0.1l21.4-12.6c4.8-2.9,5.4-7.5,5.4-9.4c0-1.9-0.5-6.5-5.4-9.4l-69-40.5
							c-4.9-2.9-9.3-1-10.9-0.1c-1.6,0.9-5.5,3.8-5.5,9.4v30.7v8.1v0.1l14.2,10.2l20.4,14.8l-8.6,5l-8.5,5c-1.7,1-3.9-0.2-3.9-2.2
							v-8.8l-13.6-9.8v27.8c0,5.7,3.8,8.5,5.5,9.4C208.3,170.9,212.6,172.8,217.5,169.9z"/>
					</g>
				</g>
			</g>
			<g>
				<g>
					<path class="st2" d="M709.9,160.6h-57.1V80.8h8.8v71.7h48.3V160.6z"/>
					<path class="st2" d="M709.9,162.3h-57.1c-0.9,0-1.7-0.8-1.7-1.7V80.8c0-0.9,0.8-1.7,1.7-1.7h8.8c0.9,0,1.7,0.8,1.7,1.7v70h46.6
						c0.9,0,1.7,0.8,1.7,1.7v8.1C711.6,161.5,710.8,162.3,709.9,162.3z M654.5,158.9h53.7v-4.7h-46.6c-0.9,0-1.7-0.8-1.7-1.7v-70
						h-5.4V158.9z"/>
				</g>
				<g>
					<path class="st2" d="M778.8,160.6h-7.6v-14.3H771c-4,9.8-13.7,15.9-25.7,15.9c-8.8,0-16.2-2.9-22.2-8.7c-6-5.9-9-13.5-9-23.1
						c0-9.1,3.1-16.7,9-22.7c6.1-6,13.9-9,23.4-9c9.5,0,17.3,2.9,23.3,8.9c6,6,9,13.7,9,23.2V160.6z M746.5,154.6
						c7.2,0,12.9-2.3,17.4-6.8c4.5-4.5,6.7-10.4,6.7-17.3c0-7-2.2-12.8-6.7-17.3c-4.5-4.5-10.2-6.8-17.4-6.8
						c-7.2,0-12.9,2.3-17.4,6.8c-4.5,4.5-6.7,10.4-6.7,17.3c0,7,2.2,12.8,6.7,17.3C733.6,152.3,739.3,154.6,746.5,154.6z"/>
					<path class="st2" d="M745.3,163.9c-9.2,0-17.1-3.1-23.4-9.1c-6.3-6.2-9.5-14.4-9.5-24.3c0-9.5,3.2-17.6,9.5-23.9
						c6.5-6.3,14.7-9.5,24.6-9.5c10,0,18.3,3.2,24.5,9.4c6.3,6.3,9.5,14.5,9.5,24.4v29.8c0,0.9-0.8,1.7-1.7,1.7h-7.6
						c-0.9,0-1.7-0.8-1.7-1.7v-8.2C764.3,159.6,755.5,163.9,745.3,163.9z M746.5,100.4c-9,0-16.5,2.9-22.2,8.5
						c-5.7,5.6-8.5,12.9-8.5,21.5c0,9,2.9,16.3,8.5,21.8c5.7,5.4,12.7,8.2,21,8.2c11.3,0,20.4-5.5,24.2-14.8c0.3-0.6,0.9-1,1.6-1
						h0.2c0.9,0,1.7,0.8,1.7,1.7v12.6h4.2v-28.1c0-9.1-2.8-16.2-8.5-22C763,103.3,755.6,100.4,746.5,100.4z M746.5,156.3
						c-7.5,0-13.8-2.5-18.6-7.3c-4.8-4.8-7.2-11-7.2-18.5c0-7.5,2.4-13.7,7.2-18.5c4.9-4.9,11.1-7.3,18.6-7.3
						c7.5,0,13.8,2.5,18.6,7.3c4.8,4.8,7.2,11,7.2,18.5c0,7.5-2.4,13.7-7.2,18.5C760.3,153.8,754,156.3,746.5,156.3z M746.5,108
						c-6.7,0-12,2.1-16.2,6.3c-4.1,4.1-6.2,9.5-6.2,16.1c0,6.6,2.1,12,6.2,16.1c4.3,4.3,9.6,6.3,16.2,6.3c6.7,0,12-2.1,16.2-6.3
						c4.1-4.1,6.2-9.5,6.2-16.1c0-6.6-2.1-12-6.2-16.1C758.5,110.1,753.2,108,746.5,108z"/>
				</g>
				<g>
					<path class="st2" d="M839.9,100.3h8.2v31.5c0,19.5-11.6,30.4-29.8,30.4s-29.8-10.9-29.8-30.4v-31.5h8.2v31.5
						c0,14.5,8.3,22.8,21.6,22.8s21.6-8.3,21.6-22.8V100.3z"/>
					<path class="st2" d="M818.3,163.9c-19.7,0-31.5-12-31.5-32.1v-31.5c0-0.9,0.8-1.7,1.7-1.7h8.2c0.9,0,1.7,0.8,1.7,1.7v31.5
						c0,13.4,7.3,21.1,19.9,21.1c12.6,0,19.9-7.7,19.9-21.1v-31.5c0-0.9,0.8-1.7,1.7-1.7h8.2c0.9,0,1.7,0.8,1.7,1.7v31.5
						C849.8,151.9,838,163.9,818.3,163.9z M790.3,102v29.8c0,18.2,10.2,28.7,28.1,28.7s28.1-10.5,28.1-28.7V102h-4.8v29.8
						c0,15.1-8.9,24.5-23.3,24.5c-14.4,0-23.3-9.4-23.3-24.5V102H790.3z"/>
				</g>
				<g>
					<path class="st2" d="M917.4,160.6h-8.2v-31.5c0-14.6-8.3-22.8-21.6-22.8s-21.6,8.2-21.6,22.8v31.5h-8.2v-31.5
						c0-19.5,11.6-30.4,29.8-30.4c18.2,0,29.8,10.9,29.8,30.4V160.6z"/>
					<path class="st2" d="M917.4,162.3h-8.2c-0.9,0-1.7-0.8-1.7-1.7v-31.5c0-13.4-7.3-21.1-19.9-21.1c-12.6,0-19.9,7.7-19.9,21.1
						v31.5c0,0.9-0.8,1.7-1.7,1.7h-8.2c-0.9,0-1.7-0.8-1.7-1.7v-31.5c0-20.1,11.8-32.1,31.5-32.1c19.7,0,31.5,12,31.5,32.1v31.5
						C919.1,161.5,918.3,162.3,917.4,162.3z M910.9,158.9h4.8v-29.8c0-18.2-10.2-28.7-28.1-28.7s-28.1,10.5-28.1,28.7v29.8h4.8
						v-29.8c0-15.3,8.7-24.5,23.3-24.5c14.6,0,23.3,9.2,23.3,24.5V158.9z"/>
				</g>
				<g>
					<path class="st2" d="M979.8,121.2c-3.3-9.1-11.8-14.9-22.7-14.9c-7.2,0-12.9,2.3-17.4,6.8c-4.5,4.5-6.7,10.4-6.7,17.3
						c0,7,2.2,12.8,6.7,17.3c4.5,4.5,10.2,6.8,17.4,6.8c10.9,0,19.4-5.7,22.7-14.9h8.3c-1.8,6.7-5.5,12.2-11.1,16.3
						c-5.5,4-12.2,6.1-19.9,6.1c-9.5,0-17.3-2.9-23.4-8.9c-6-6-9-13.7-9-22.8c0-9.1,3-16.7,9-22.7c6.1-6,13.9-9,23.4-9
						c7.7,0,14.4,2.1,19.9,6.2c5.6,4,9.3,9.5,11.1,16.2H979.8z"/>
					<path class="st2" d="M957.2,163.9c-10,0-18.2-3.2-24.6-9.4c-6.3-6.3-9.5-14.4-9.5-24c0-9.5,3.2-17.6,9.5-23.9
						c6.5-6.3,14.7-9.5,24.6-9.5c8.1,0,15.1,2.2,20.9,6.6c5.8,4.2,9.7,9.9,11.7,17.1c0.1,0.5,0,1.1-0.3,1.5
						c-0.3,0.4-0.8,0.7-1.3,0.7h-8.3c-0.7,0-1.3-0.4-1.6-1.1c-3.1-8.6-11-13.8-21.1-13.8c-6.7,0-12,2.1-16.2,6.3
						c-4.1,4.1-6.2,9.5-6.2,16.1c0,6.6,2.1,12,6.2,16.1c4.3,4.3,9.6,6.3,16.2,6.3c10.1,0,18-5.1,21.1-13.8c0.2-0.7,0.9-1.1,1.6-1.1
						h8.3c0.5,0,1,0.2,1.3,0.7c0.3,0.4,0.4,1,0.3,1.5c-1.9,7.1-5.9,12.9-11.7,17.3C972.2,161.7,965.2,163.9,957.2,163.9z
						 M957.2,100.4c-9,0-16.5,2.9-22.2,8.5c-5.7,5.6-8.5,12.9-8.5,21.5c0,8.7,2.9,16,8.5,21.6c5.8,5.7,13,8.4,22.2,8.4
						c7.3,0,13.7-1.9,18.9-5.8c4.6-3.4,7.9-7.9,9.8-13.3H981c-3.8,9.2-12.9,14.9-23.8,14.9c-7.5,0-13.8-2.5-18.6-7.3
						c-4.8-4.8-7.2-11-7.2-18.5c0-7.5,2.4-13.7,7.2-18.5c4.9-4.9,11.1-7.3,18.6-7.3c11,0,20,5.7,23.8,14.9h4.8
						c-1.9-5.4-5.2-9.9-9.8-13.2C970.8,102.4,964.5,100.4,957.2,100.4z"/>
				</g>
				<g>
					<path class="st2" d="M1005.8,129.1v31.5h-8.2V74h8.2v37.6h0.2c4-8.2,12.2-12.8,22.6-12.8c8.4,0,15.4,2.6,20.6,7.8
						c5.2,5.1,7.9,12.7,7.9,22.6v31.5h-8.2v-31.5c0-14.6-8.3-22.8-21.6-22.8C1014.2,106.3,1005.8,114.6,1005.8,129.1z"/>
					<path class="st2" d="M1057.2,162.3h-8.2c-0.9,0-1.7-0.8-1.7-1.7v-31.5c0-13.4-7.3-21.1-19.9-21.1c-12.5,0-19.9,7.9-19.9,21.1
						v31.5c0,0.9-0.8,1.7-1.7,1.7h-8.2c-0.9,0-1.7-0.8-1.7-1.7V74c0-0.9,0.8-1.7,1.7-1.7h8.2c0.9,0,1.7,0.8,1.7,1.7v32.2
						c4.8-5.9,12.2-9.1,21.1-9.1c9,0,16.3,2.8,21.8,8.3c5.6,5.5,8.4,13.5,8.4,23.8v31.5C1058.9,161.5,1058.1,162.3,1057.2,162.3z
						 M1050.7,158.9h4.8v-29.8c0-9.4-2.5-16.6-7.4-21.4c-4.9-4.9-11.4-7.3-19.4-7.3c-9.7,0-17.3,4.3-21.1,11.9
						c-0.3,0.6-0.9,0.9-1.5,0.9h-0.2c-0.9,0-1.7-0.8-1.7-1.7V75.7h-4.8v83.2h4.8v-29.8c0-15.1,8.9-24.5,23.3-24.5
						c14.6,0,23.3,9.2,23.3,24.5V158.9z"/>
				</g>
				<g>
					<path class="st2" d="M1129.1,133.1h-56.2c1.1,12.7,10.7,21.5,24,21.5c9.8,0,16.7-3.7,20.7-10.9h8.9
						c-4.8,11.2-15.9,18.4-29.6,18.4c-9.5,0-17.3-2.9-23.4-8.9c-6-6-9-13.7-9-22.8c0-9.1,3-16.7,9-22.7c6.1-6,13.9-9,23.4-9
						c9.4,0,17.2,3.1,23.2,9c6,6,9,13.5,9,22.7V133.1z M1073.2,125.6v0.2h47.5v-0.2c-2-11.6-11.1-19.3-23.7-19.3
						C1084.3,106.3,1075.1,114,1073.2,125.6z"/>
					<path class="st2" d="M1096.9,163.9c-10,0-18.2-3.2-24.6-9.4c-6.3-6.3-9.5-14.4-9.5-24c0-9.5,3.2-17.6,9.5-23.9
						c6.5-6.3,14.7-9.5,24.6-9.5c9.9,0,18.1,3.2,24.4,9.5c6.3,6.3,9.5,14.4,9.5,23.9v2.7c0,0.9-0.8,1.7-1.7,1.7h-54.3
						c1.8,10.9,10.4,18.1,22.1,18.1c9.1,0,15.6-3.4,19.3-10c0.3-0.5,0.9-0.9,1.5-0.9h8.9c0.6,0,1.1,0.3,1.4,0.8
						c0.3,0.5,0.4,1.1,0.1,1.6C1123.1,156.4,1111.1,163.9,1096.9,163.9z M1096.9,100.4c-9,0-16.5,2.9-22.2,8.5
						c-5.7,5.6-8.5,12.9-8.5,21.5c0,8.7,2.9,16,8.5,21.6c5.8,5.7,13,8.4,22.2,8.4c11.8,0,21.9-5.7,27-15h-5.3
						c-4.4,7.2-11.7,10.9-21.7,10.9c-14,0-24.5-9.5-25.7-23c0-0.5,0.1-0.9,0.4-1.3c0.3-0.3,0.8-0.5,1.2-0.5h54.5v-1
						c0-8.6-2.9-15.8-8.5-21.5C1113.3,103.3,1105.9,100.4,1096.9,100.4z M1120.6,127.5h-47.5c-0.9,0-1.7-0.8-1.7-1.7v-0.2
						c0-0.1,0-0.2,0-0.3c2.1-12.6,12.1-20.7,25.5-20.7c13.3,0,23.2,8.1,25.3,20.7c0,0.1,0,0.2,0,0.3v0.2
						C1122.3,126.8,1121.5,127.5,1120.6,127.5z M1075.2,124.1h43.4c-2.4-9.9-10.7-16.1-21.6-16.1
						C1086,108,1077.6,114.3,1075.2,124.1z"/>
				</g>
				<g>
					<path class="st2" d="M1187.1,125.3h-8.1v-0.9c0-12.2-6.5-18.2-17.2-18.2s-17.2,6-17.2,18.2v36.1h-8.2v-36.1
						c0-16.7,9.9-25.7,25.4-25.7c15.5,0,25.3,8.9,25.3,25.9V125.3z"/>
					<path class="st2" d="M1144.6,162.3h-8.2c-0.9,0-1.7-0.8-1.7-1.7v-36.1c0-17.2,10.1-27.4,27.1-27.4c16.9,0,26.9,10.3,26.9,27.5
						v0.7c0,0.9-0.8,1.7-1.7,1.7h-8.1c-0.9,0-1.7-0.8-1.7-1.7v-0.9c0-10.8-5.4-16.5-15.5-16.5s-15.5,5.7-15.5,16.5v36.1
						C1146.3,161.5,1145.6,162.3,1144.6,162.3z M1138.2,158.9h4.8v-34.4c0-12.6,6.9-19.9,18.9-19.9c11.7,0,18.6,6.9,18.9,19h4.7
						c-0.3-15-8.7-23.2-23.6-23.2c-15.1,0-23.7,8.8-23.7,24.1V158.9z"/>
				</g>
			</g>
		</g>
		<g>
			<g>
				<g>
					<path class="st0" d="M118,64.8l-30.7-18c-6.3-3.7-14.1,0.8-14.1,8.1v36.1c0,7.3,7.9,11.8,14.1,8.1l30.7-18
						C124.2,77.3,124.2,68.4,118,64.8z"/>
					<path class="st1" d="M85,95.1l7-4.1l9.2-5.4c1.8-1,1.9-3.6,0.2-4.8l-1.8-1.3L83.7,67.9v-8.9c0-0.9,1-1.5,1.7-1l23.7,13.9
						c0.8,0.5,0.8,1.5,0,2l-3.1,1.8v7l0.1-0.1l9.5-5.6c2.2-1.3,2.4-3.3,2.4-4.2c0-0.8-0.2-2.9-2.4-4.2L85,50.6
						c-2.2-1.3-4.1-0.5-4.9,0c-0.7,0.4-2.4,1.7-2.4,4.2v13.7v3.6v0l6.3,4.6l9.1,6.6l-3.8,2.2l-3.8,2.2c-0.8,0.5-1.7-0.1-1.7-1v-3.9
						l-6-4.4v12.4c0,2.5,1.7,3.8,2.4,4.2C80.9,95.5,82.8,96.4,85,95.1z"/>
				</g>
				<g>
					<g>
						<path class="st0" d="M92.3,12.4c3.4,0,6.8,0.3,10.2,0.9c32.8,5.6,55,36.8,49.5,69.6c-2.4,14.2-9.8,27-20.8,36.2
							c-10.9,9.1-24.6,14.1-38.7,14.1c-3.4,0-6.8-0.3-10.2-0.9c-32.8-5.6-55-36.8-49.5-69.6c2.4-14.2,9.8-27,20.8-36.2
							C64.5,17.4,78.2,12.4,92.3,12.4 M92.3,5.7c-32.2,0-60.6,23.2-66.2,56c-6.2,36.6,18.5,71.3,55,77.4c3.8,0.6,7.6,1,11.3,1
							c32.2,0,60.6-23.2,66.2-56c6.2-36.6-18.5-71.3-55-77.4C99.8,6,96,5.7,92.3,5.7L92.3,5.7z"/>
					</g>
				</g>
				<g>
					<path class="st1" d="M115.8,21.8c-1.7-0.3-3.3-0.4-5-0.4c-3.2-1.8-6.7-3.3-10.4-4.3c-12.2-3.3-25.3,1.3-32.7,11.6
						c-5,6.8-7.8,15-8.2,22.4c-0.1,1.8,2.3,2.5,3.3,1c3-4.7,8.4-11.7,16.9-17.4c0.8-0.6,1.7-1.1,2.6-1.5c-0.5,0.7-0.7,1.4-0.8,2.2
						c0,0.3,0,0.6,0.1,0.9c-0.2,0.1-0.4,0.2-0.6,0.4C73,42.1,67.8,48.7,64.8,53.4c-0.8,1.2-2.1,1.9-3.5,1.9c-1.2,0-2.3-0.5-3.1-1.3
						c-0.8-0.8-1.2-1.9-1.1-3c0.4-8.1,3.5-16.7,8.6-23.7C72,18.8,82,13.7,92.5,13.7c2.9,0,5.7,0.4,8.5,1.1
						C106.3,16.2,111.4,18.7,115.8,21.8z"/>
					<path class="st0" d="M110.8,21.4c-1.7,0-3.3,0.1-5,0.4C97.3,23.1,89,27,83,32.5c-0.2,0.2-0.4,0.4-0.6,0.7c0,0,0,0,0,0
						c-0.9,0.5-1.7,1-2.6,1.5c-8.5,5.7-14,12.7-16.9,17.4c-1,1.5-3.4,0.8-3.3-1c0.4-7.3,3.2-15.6,8.2-22.4
						c7.5-10.2,20.5-14.8,32.7-11.6C104.1,18.1,107.6,19.6,110.8,21.4z"/>
					<g>
						<path class="st1" d="M58,82.4c-0.8,0.8-1.9,1.3-3.1,1.2c-1.1,0-2.2-0.5-2.9-1.4c-5.4-6-9.3-14.3-10.6-22.8
							c-1.6-10.4,1.8-21.1,9.3-28.5c2-2,4.3-3.8,6.8-5.2c7.5-4.3,16.4-6.5,24.4-6.1c1.7,0.1,3,1.1,3.6,2.6c0.6,1.5,0.2,3.3-0.9,4.4
							c-0.3,0.3-0.7,0.6-1.1,0.8c-3.8,1.9-9.5,5.3-15,10.7c-1.2,1.2-2.3,2.4-3.4,3.7c-3.2,3.8-5.4,8.4-6.4,13.3
							c-1.9,9.6-0.9,17.9,0.3,23.3C59.4,80,59,81.4,58,82.4z"/>
						<path class="st0" d="M53.8,80.7c-4.9-5.4-8.7-13.3-10-21.6c-2-12.5,4-25,15-31.3c7.3-4.2,15.8-6.2,23.1-5.8
							c1.8,0.1,2.3,2.6,0.7,3.4c-5,2.5-12.5,7.1-19.1,15c-3.4,4.1-5.8,9.1-6.9,14.4c-2,10-0.9,18.8,0.3,24.3
							C57.2,80.9,55,82,53.8,80.7z"/>
						<path class="st0" d="M53.8,80.7c-4.9-5.4-8.7-13.3-10-21.6c-2-12.5,4-25,15-31.3c7.3-4.2,15.8-6.2,23.1-5.8
							c1.8,0.1,2.3,2.6,0.7,3.4c-5,2.5-12.5,7.1-19.1,15c-3.4,4.1-5.8,9.1-6.9,14.4c-2,10-0.9,18.8,0.3,24.3
							C57.2,80.9,55,82,53.8,80.7z"/>
					</g>
					<g>
						<path class="st1" d="M74.8,103.9c0,1.2-0.5,2.3-1.3,3.1c-0.8,0.8-1.9,1.2-3,1.1c-8.1-0.4-16.7-3.5-23.7-8.6
							c-8.5-6.2-13.6-16.2-13.6-26.7c0-2.9,0.4-5.7,1.1-8.5c2.2-8.3,7-16.2,13-21.6c1.2-1.1,2.9-1.4,4.4-0.7
							c1.5,0.7,2.5,2.2,2.5,3.8c0,0.5-0.1,0.9-0.2,1.4c-1.4,4-3,10.5-3,18.2c0,1.7,0.1,3.3,0.2,5c0.5,5,2.2,9.8,4.9,13.9
							c5.4,8.1,12.1,13.3,16.7,16.3C74.1,101.2,74.8,102.5,74.8,103.9z"/>
						<path class="st0" d="M70.6,105.7c-7.3-0.4-15.6-3.2-22.4-8.2C38,90.1,33.4,77.1,36.7,64.8c2.2-8.1,6.8-15.5,12.3-20.4
							c1.4-1.2,3.4,0.2,2.8,1.9C50,51.6,48,60.3,48.9,70.5c0.5,5.4,2.3,10.5,5.3,15c5.7,8.5,12.7,14,17.4,16.9
							C73.2,103.4,72.4,105.8,70.6,105.7z"/>
						<path class="st0" d="M70.6,105.7c-7.3-0.4-15.6-3.2-22.4-8.2C38,90.1,33.4,77.1,36.7,64.8c2.2-8.1,6.8-15.5,12.3-20.4
							c1.4-1.2,3.4,0.2,2.8,1.9C50,51.6,48,60.3,48.9,70.5c0.5,5.4,2.3,10.5,5.3,15c5.7,8.5,12.7,14,17.4,16.9
							C73.2,103.4,72.4,105.8,70.6,105.7z"/>
					</g>
					<g>
						<path class="st1" d="M102,107.2c0.8,0.8,1.3,1.9,1.2,3.1c0,1.1-0.5,2.2-1.4,2.9c-6,5.4-14.3,9.3-22.8,10.6
							c-10.4,1.6-21.1-1.8-28.5-9.3c-2-2-3.8-4.3-5.2-6.8c-4.3-7.5-6.5-16.4-6.1-24.4c0.1-1.7,1.1-3,2.6-3.6
							c1.5-0.6,3.3-0.2,4.4,0.9c0.3,0.3,0.6,0.7,0.8,1.1c1.9,3.8,5.3,9.5,10.7,15c1.2,1.2,2.4,2.3,3.7,3.4c3.8,3.2,8.4,5.4,13.3,6.4
							c9.6,1.9,17.9,0.9,23.3-0.3C99.5,105.8,101,106.2,102,107.2z"/>
						<path class="st0" d="M100.2,111.5c-5.4,4.9-13.3,8.7-21.6,10c-12.5,2-25-4-31.3-15c-4.2-7.3-6.2-15.8-5.8-23.1
							c0.1-1.8,2.6-2.3,3.4-0.7c2.5,5,7.1,12.5,15,19.1c4.1,3.4,9.1,5.8,14.4,6.9c10,2,18.8,0.9,24.3-0.3
							C100.4,108.1,101.6,110.3,100.2,111.5z"/>
						<path class="st0" d="M100.2,111.5c-5.4,4.9-13.3,8.7-21.6,10c-12.5,2-25-4-31.3-15c-4.2-7.3-6.2-15.8-5.8-23.1
							c0.1-1.8,2.6-2.3,3.4-0.7c2.5,5,7.1,12.5,15,19.1c4.1,3.4,9.1,5.8,14.4,6.9c10,2,18.8,0.9,24.3-0.3
							C100.4,108.1,101.6,110.3,100.2,111.5z"/>
					</g>
					<g>
						<path class="st1" d="M92.3,132c-2.9,0-5.7-0.4-8.5-1.1c-8.3-2.2-16.2-7-21.6-13c-1.1-1.2-1.4-2.9-0.7-4.4
							c0.7-1.5,2.2-2.5,3.8-2.5c0.5,0,0.9,0.1,1.4,0.2c4,1.4,10.5,3,18.2,3h0c1.7,0,3.3-0.1,5-0.2c5-0.5,9.8-2.2,13.9-4.9
							c8.1-5.4,13.3-12.1,16.3-16.7c0.8-1.2,2.1-1.9,3.5-1.9c1.2,0,2.3,0.5,3.1,1.3c0.8,0.8,1.2,1.9,1.1,3
							c-0.4,8.1-3.5,16.7-8.6,23.7C112.8,126.9,102.8,132,92.3,132z"/>
						<path class="st0" d="M125.3,94.6c-0.4,7.3-3.2,15.6-8.2,22.4c-7.5,10.2-20.5,14.8-32.7,11.6c-8.1-2.2-15.5-6.8-20.4-12.3
							c-1.2-1.4,0.2-3.4,1.9-2.8c5.3,1.8,13.9,3.8,24.1,2.9c5.4-0.5,10.5-2.3,15-5.3c8.5-5.7,14-12.7,16.9-17.4
							C123,92.1,125.4,92.8,125.3,94.6z"/>
					</g>
					<g>
						<path class="st1" d="M134.1,114.8c-2,2-4.3,3.8-6.8,5.2c-7.5,4.3-16.4,6.5-24.4,6.1c-1.7-0.1-3-1.1-3.6-2.6
							c-0.6-1.5-0.2-3.3,0.9-4.4c0.3-0.3,0.7-0.6,1.1-0.8c3.8-1.9,9.5-5.3,15-10.7l0,0c1.2-1.2,2.3-2.4,3.4-3.7
							c3.2-3.8,5.4-8.4,6.4-13.3c1.9-9.6,0.9-17.9-0.3-23.3c-0.3-1.4,0.1-2.8,1.1-3.9c0.8-0.8,1.9-1.3,3.1-1.2
							c1.1,0,2.2,0.5,2.9,1.4c5.4,6,9.3,14.3,10.6,22.8C145.1,96.6,141.6,107.3,134.1,114.8z"/>
						<path class="st0" d="M131,65c4.9,5.4,8.7,13.3,10,21.6c2,12.5-4,25-15,31.3c-7.3,4.2-15.8,6.2-23.1,5.8
							c-1.8-0.1-2.3-2.6-0.7-3.4c5-2.5,12.5-7.1,19.1-15c3.4-4.1,5.8-9.1,6.9-14.4c2-10,0.9-18.8-0.3-24.3
							C127.6,64.9,129.8,63.7,131,65z"/>
					</g>
					<g>
						<path class="st1" d="M151.6,73c0,2.9-0.4,5.7-1.1,8.5c-2.2,8.3-7,16.2-13,21.6c-1.2,1.1-2.9,1.4-4.4,0.7
							c-1.5-0.7-2.5-2.2-2.5-3.8c0-0.5,0.1-0.9,0.2-1.4c1.4-4,3-10.5,3-18.2v0c0-1.7-0.1-3.3-0.2-5c-0.5-5-2.2-9.8-4.9-13.9
							c-5.4-8.1-12.1-13.3-16.7-16.3c-1.2-0.8-1.9-2.1-1.9-3.5c0-1.2,0.5-2.3,1.3-3.1c0.8-0.8,1.9-1.2,3-1.1
							c8.1,0.4,16.7,3.5,23.7,8.6C146.5,52.4,151.6,62.4,151.6,73z"/>
						<path class="st0" d="M114.2,40c7.3,0.4,15.6,3.2,22.4,8.2c10.2,7.5,14.8,20.5,11.6,32.7c-2.2,8.1-6.8,15.5-12.3,20.4
							c-1.4,1.2-3.4-0.2-2.8-1.9c1.8-5.3,3.8-13.9,2.9-24.1c-0.5-5.4-2.3-10.5-5.3-15c-5.7-8.5-12.7-14-17.4-16.9
							C111.6,42.3,112.4,39.9,114.2,40z"/>
					</g>
					<g>
						<path class="st1" d="M145.6,62.4c-0.1,1.7-1.1,3-2.6,3.6c-1.5,0.6-3.3,0.2-4.4-0.9c-0.3-0.3-0.6-0.7-0.8-1.1
							c-1.9-3.8-5.3-9.5-10.7-15c-1.2-1.2-2.4-2.3-3.7-3.4c-3.8-3.2-8.4-5.4-13.3-6.4c-9.6-1.9-17.9-0.9-23.3,0.3
							c-1.4,0.3-2.8-0.1-3.8-1.1c-0.6-0.6-1-1.4-1.2-2.2c-0.1-0.3-0.1-0.6-0.1-0.9c0-0.8,0.3-1.6,0.8-2.2c0,0,0,0,0,0
							c0.2-0.2,0.4-0.5,0.6-0.7c6-5.4,14.3-9.3,22.8-10.6c1.7-0.3,3.3-0.4,5-0.4c1.7,0,3.4,0.1,5,0.4c6.9,1,13.4,4.3,18.5,9.3
							c2,2,3.8,4.3,5.2,6.8C143.9,45.4,146.1,54.3,145.6,62.4z"/>
						<path class="st0" d="M84.6,34.2c5.4-4.9,13.3-8.7,21.6-10c12.5-2,25,4,31.3,15c4.2,7.3,6.2,15.8,5.8,23.1
							c-0.1,1.8-2.6,2.3-3.4,0.7c-2.5-5-7.1-12.5-15-19.1c-4.1-3.4-9.1-5.8-14.4-6.9c-10-2-18.8-0.9-24.3,0.3
							C84.4,37.6,83.2,35.4,84.6,34.2z"/>
					</g>
					<g>
						<path class="st1" d="M122.6,27.8c-0.8-0.9-1.7-1.8-2.6-2.6c-1.3-1.2-2.7-2.3-4.2-3.4c-1.7-0.3-3.3-0.4-5-0.4
							c-1.7,0-3.3,0.1-5,0.4C97.3,23.1,89,27,83,32.5c-0.2,0.2-0.4,0.4-0.6,0.7c0,0,0,0,0,0c-0.5,0.7-0.7,1.4-0.8,2.2
							c0,0.3,0,0.6,0.1,0.9c0.8-0.5,1.6-1,2.4-1.4c3.4-1.7,7.1-2.8,10.9-3.2c1.6-0.2,3.3-0.2,5-0.2c7.7,0,14.1,1.6,18.2,3
							c0.4,0.2,0.9,0.2,1.4,0.2c1.6,0,3.1-1,3.8-2.5C124,30.8,123.7,29.1,122.6,27.8z"/>
						<path class="st0" d="M118.9,32.3c-5.3-1.8-13.9-3.8-24.1-2.9c-1.6,0.2-3.3,0.4-4.9,0.8c-2.6,0.7-5.2,1.6-7.6,2.9
							c0.2-0.2,0.4-0.5,0.6-0.7c6-5.4,14.3-9.3,22.8-10.6c1.7-0.3,3.3-0.4,5-0.4c1.4,0.8,2.8,1.7,4.1,2.6c2.2,1.6,4.3,3.4,6,5.4
							C122,30.8,120.6,32.8,118.9,32.3z"/>
						<path class="st0" d="M118.9,32.3c-5.3-1.8-13.9-3.8-24.1-2.9c-1.6,0.2-3.3,0.4-4.9,0.8c-2.6,0.7-5.2,1.6-7.6,2.9
							c0.2-0.2,0.4-0.5,0.6-0.7c6-5.4,14.3-9.3,22.8-10.6c1.7-0.3,3.3-0.4,5-0.4c1.4,0.8,2.8,1.7,4.1,2.6c2.2,1.6,4.3,3.4,6,5.4
							C122,30.8,120.6,32.8,118.9,32.3z"/>
					</g>
					<path class="st0" d="M83.4,32.6c0,0-1.3,0.6-1.7,0.9c-0.3-1,2-4.3,2-4.3l7.4-5l18.2-3.6l1.5,0.8l-1.1,1c0,0-9,2-10.1,2.2
						c-1,0.2-9.1,3.5-9.1,3.5L85.2,31L83.4,32.6z"/>
				</g>
			</g>
			<g>
				<path class="st3" d="M97.1,225.5c-0.5,0.6-1.4,0.5-2,0c0,0,0,0,0,0c-1.1-1.2-1.9-2.5-2.5-4c-0.9-2.4-2.4-6.9-3.6-11.7
					c-0.6-2.6-1.2-5.4-1.5-8.1c-1.1-9.8,0.5-19.6,1.9-24.4c0,0-9.1,16.5-1.8,42.4l0,0c0.3,1.3,0.7,2.8,1.1,4.3
					c0.6,1.8,1.3,3.6,1.9,5.1c1.4,3.6,2.8,6.3,3.7,8.1c0.5,0.9,1.8,0.7,2-0.3c0.9-4.1,3.3-14,3.3-14
					C99.1,223.6,98.1,224.5,97.1,225.5z"/>
				<path class="st3" d="M94.1,159.2c-1.9-2.1-5.3-1.6-6.5,1c-3.1,7.2-4.2,14.9-4.4,24.8c0.2-0.4,2.7-13.7,6-18.5
					c0.6-0.8,1.8-0.6,2.1,0.4c0.9,3.6,2.3,9.2,2.7,20.6c0.8,21.7,0,25.2,0,25.2s2.3-3.7,2.9-26.8c0-1,1.2-1.4,1.9-0.7
					c2,2.2,2.8,7.2,3.1,16c0.4,12.3-0.5,17.2-0.7,18c1.7-6.2,3.1-13.1,3.8-20.7C106.8,179.2,99.7,165.5,94.1,159.2z"/>
			</g>
			<circle class="st3" cx="91.3" cy="149.3" r="3.5"/>
			<g>
				<path class="st3" d="M52.7,203.8c0,0.2,0,0.3,0,0.5h0V203.8L52.7,203.8z"/>
			</g>
			<g>
				<circle class="st3" cx="47.7" cy="131.4" r="3.5"/>
				<path class="st3" d="M50.9,179.8c0,0,5.2-21.3-1.9-39.4c-0.5-1.2-2.1-1.2-2.6-0.1c-2,4.5-5.3,15-4.2,32.5
					c1.5,24.6-7.3,45.1-7.3,45.1s25.6-17.3,25.6-41.7c0-12.3-1.9-19.5-3-20.4c0,0,4.8,28.5-13.5,43c-0.6,0.4-1.5,0-1.3-0.7
					c1-3.8,1.3-21.9,5.9-27.2c0.5-0.6,1.4-0.3,1.6,0.4C50.6,173.2,51.4,176.8,50.9,179.8z"/>
			</g>
			<g>
				<circle class="st3" cx="134.9" cy="131.4" r="3.5"/>
				<path class="st3" d="M131.7,179.8c0,0-5.2-21.3,1.9-39.4c0.5-1.2,2.1-1.2,2.6-0.1c2,4.5,5.3,15,4.2,32.5
					c-1.5,24.6,7.3,45.1,7.3,45.1s-25.6-17.3-25.6-41.7c0-12.3,1.9-19.5,3-20.4c0,0-4.8,28.5,13.5,43c0.6,0.4,1.5,0,1.3-0.7
					c-1-3.8-1.3-21.9-5.9-27.2c-0.5-0.6-1.4-0.3-1.6,0.4C132,173.2,131.2,176.8,131.7,179.8z"/>
			</g>
		</g>
	</g>
</g>
</svg>
