<?xml version="1.0" encoding="utf-8"?>
<!-- Generator: Adobe Illustrator 22.0.1, SVG Export Plug-In . SVG Version: 6.00 Build 0)  -->
<svg version="1.1" id="Layer_3" xmlns="http://www.w3.org/2000/svg" xmlns:xlink="http://www.w3.org/1999/xlink" x="0px" y="0px"
	 viewBox="0 0 186 240" style="enable-background:new 0 0 186 240;" xml:space="preserve">
<style type="text/css">
	.st0{fill:#5FA8DC;}
	.st1{fill:#FFFFFF;}
	.st2{fill:#5FA7DB;}
</style>
<g>
	<g>
		<g>
			<g>
				<path class="st0" d="M118,64.8l-30.7-18c-6.3-3.7-14.1,0.8-14.1,8.1v36.1c0,7.3,7.9,11.8,14.1,8.1l30.7-18
					C124.2,77.3,124.2,68.4,118,64.8z"/>
				<path class="st1" d="M85,95.1l7-4.1l9.2-5.4c1.8-1,1.9-3.6,0.2-4.8l-1.8-1.3L83.7,67.9v-8.9c0-0.9,1-1.5,1.7-1l23.7,13.9
					c0.8,0.5,0.8,1.5,0,2l-3.1,1.8v7l0.1-0.1l9.5-5.6c2.2-1.3,2.4-3.3,2.4-4.2c0-0.8-0.2-2.9-2.4-4.2L85,50.6
					c-2.2-1.3-4.1-0.5-4.9,0c-0.7,0.4-2.4,1.7-2.4,4.2v13.7v3.6v0l6.3,4.6l9.1,6.6l-3.8,2.2l-3.8,2.2c-0.8,0.5-1.7-0.1-1.7-1v-3.9
					l-6-4.4v12.4c0,2.5,1.7,3.8,2.4,4.2C80.9,95.5,82.8,96.4,85,95.1z"/>
			</g>
			<g>
				<g>
					<path class="st0" d="M92.3,12.4c3.4,0,6.8,0.3,10.2,0.9c32.8,5.6,55,36.8,49.5,69.6c-2.4,14.2-9.8,27-20.8,36.2
						c-10.9,9.1-24.6,14.1-38.7,14.1c-3.4,0-6.8-0.3-10.2-0.9c-32.8-5.6-55-36.8-49.5-69.6c2.4-14.2,9.8-27,20.8-36.2
						C64.5,17.4,78.2,12.4,92.3,12.4 M92.3,5.7c-32.2,0-60.6,23.2-66.2,56c-6.2,36.6,18.5,71.3,55,77.4c3.8,0.6,7.6,1,11.3,1
						c32.2,0,60.6-23.2,66.2-56c6.2-36.6-18.5-71.3-55-77.4C99.8,6,96,5.7,92.3,5.7L92.3,5.7z"/>
				</g>
			</g>
			<g>
				<path class="st1" d="M115.8,21.8c-1.7-0.3-3.3-0.4-5-0.4c-3.2-1.8-6.7-3.3-10.4-4.3c-12.2-3.3-25.3,1.3-32.7,11.6
					c-5,6.8-7.8,15-8.2,22.4c-0.1,1.8,2.3,2.5,3.3,1c3-4.7,8.4-11.7,16.9-17.4c0.8-0.6,1.7-1.1,2.6-1.5c-0.5,0.7-0.7,1.4-0.8,2.2
					c0,0.3,0,0.6,0.1,0.9c-0.2,0.1-0.4,0.2-0.6,0.4C73,42.1,67.8,48.7,64.8,53.4c-0.8,1.2-2.1,1.9-3.5,1.9c-1.2,0-2.3-0.5-3.1-1.3
					c-0.8-0.8-1.2-1.9-1.1-3c0.4-8.1,3.5-16.7,8.6-23.7C72,18.8,82,13.7,92.5,13.7c2.9,0,5.7,0.4,8.5,1.1
					C106.3,16.2,111.4,18.7,115.8,21.8z"/>
				<path class="st0" d="M110.8,21.4c-1.7,0-3.3,0.1-5,0.4C97.3,23.1,89,27,83,32.5c-0.2,0.2-0.4,0.4-0.6,0.7c0,0,0,0,0,0
					c-0.9,0.5-1.7,1-2.6,1.5c-8.5,5.7-14,12.7-16.9,17.4c-1,1.5-3.4,0.8-3.3-1c0.4-7.3,3.2-15.6,8.2-22.4
					c7.5-10.2,20.5-14.8,32.7-11.6C104.1,18.1,107.6,19.6,110.8,21.4z"/>
				<g>
					<path class="st1" d="M58,82.4c-0.8,0.8-1.9,1.3-3.1,1.2c-1.1,0-2.2-0.5-2.9-1.4c-5.4-6-9.3-14.3-10.6-22.8
						c-1.6-10.4,1.8-21.1,9.3-28.5c2-2,4.3-3.8,6.8-5.2c7.5-4.3,16.4-6.5,24.4-6.1c1.7,0.1,3,1.1,3.6,2.6c0.6,1.5,0.2,3.3-0.9,4.4
						c-0.3,0.3-0.7,0.6-1.1,0.8c-3.8,1.9-9.5,5.3-15,10.7c-1.2,1.2-2.3,2.4-3.4,3.7c-3.2,3.8-5.4,8.4-6.4,13.3
						c-1.9,9.6-0.9,17.9,0.3,23.3C59.4,80,59,81.4,58,82.4z"/>
					<path class="st0" d="M53.8,80.7c-4.9-5.4-8.7-13.3-10-21.6c-2-12.5,4-25,15-31.3c7.3-4.2,15.8-6.2,23.1-5.8
						c1.8,0.1,2.3,2.6,0.7,3.4c-5,2.5-12.5,7.1-19.1,15c-3.4,4.1-5.8,9.1-6.9,14.4c-2,10-0.9,18.8,0.3,24.3
						C57.2,80.9,55,82,53.8,80.7z"/>
					<path class="st0" d="M53.8,80.7c-4.9-5.4-8.7-13.3-10-21.6c-2-12.5,4-25,15-31.3c7.3-4.2,15.8-6.2,23.1-5.8
						c1.8,0.1,2.3,2.6,0.7,3.4c-5,2.5-12.5,7.1-19.1,15c-3.4,4.1-5.8,9.1-6.9,14.4c-2,10-0.9,18.8,0.3,24.3
						C57.2,80.9,55,82,53.8,80.7z"/>
				</g>
				<g>
					<path class="st1" d="M74.8,103.9c0,1.2-0.5,2.3-1.3,3.1c-0.8,0.8-1.9,1.2-3,1.1c-8.1-0.4-16.7-3.5-23.7-8.6
						c-8.5-6.2-13.6-16.2-13.6-26.7c0-2.9,0.4-5.7,1.1-8.5c2.2-8.3,7-16.2,13-21.6c1.2-1.1,2.9-1.4,4.4-0.7c1.5,0.7,2.5,2.2,2.5,3.8
						c0,0.5-0.1,0.9-0.2,1.4c-1.4,4-3,10.5-3,18.2c0,1.7,0.1,3.3,0.2,5c0.5,5,2.2,9.8,4.9,13.9c5.4,8.1,12.1,13.3,16.7,16.3
						C74.1,101.2,74.8,102.5,74.8,103.9z"/>
					<path class="st0" d="M70.6,105.7c-7.3-0.4-15.6-3.2-22.4-8.2C38,90.1,33.4,77.1,36.7,64.8c2.2-8.1,6.8-15.5,12.3-20.4
						c1.4-1.2,3.4,0.2,2.8,1.9C50,51.6,48,60.3,48.9,70.5c0.5,5.4,2.3,10.5,5.3,15c5.7,8.5,12.7,14,17.4,16.9
						C73.2,103.4,72.4,105.8,70.6,105.7z"/>
					<path class="st0" d="M70.6,105.7c-7.3-0.4-15.6-3.2-22.4-8.2C38,90.1,33.4,77.1,36.7,64.8c2.2-8.1,6.8-15.5,12.3-20.4
						c1.4-1.2,3.4,0.2,2.8,1.9C50,51.6,48,60.3,48.9,70.5c0.5,5.4,2.3,10.5,5.3,15c5.7,8.5,12.7,14,17.4,16.9
						C73.2,103.4,72.4,105.8,70.6,105.7z"/>
				</g>
				<g>
					<path class="st1" d="M102,107.2c0.8,0.8,1.3,1.9,1.2,3.1c0,1.1-0.5,2.2-1.4,2.9c-6,5.4-14.3,9.3-22.8,10.6
						c-10.4,1.6-21.1-1.8-28.5-9.3c-2-2-3.8-4.3-5.2-6.8c-4.3-7.5-6.5-16.4-6.1-24.4c0.1-1.7,1.1-3,2.6-3.6c1.5-0.6,3.3-0.2,4.4,0.9
						c0.3,0.3,0.6,0.7,0.8,1.1c1.9,3.8,5.3,9.5,10.7,15c1.2,1.2,2.4,2.3,3.7,3.4c3.8,3.2,8.4,5.4,13.3,6.4
						c9.6,1.9,17.9,0.9,23.3-0.3C99.5,105.8,101,106.2,102,107.2z"/>
					<path class="st0" d="M100.2,111.5c-5.4,4.9-13.3,8.7-21.6,10c-12.5,2-25-4-31.3-15c-4.2-7.3-6.2-15.8-5.8-23.1
						c0.1-1.8,2.6-2.3,3.4-0.7c2.5,5,7.1,12.5,15,19.1c4.1,3.4,9.1,5.8,14.4,6.9c10,2,18.8,0.9,24.3-0.3
						C100.4,108.1,101.6,110.3,100.2,111.5z"/>
					<path class="st0" d="M100.2,111.5c-5.4,4.9-13.3,8.7-21.6,10c-12.5,2-25-4-31.3-15c-4.2-7.3-6.2-15.8-5.8-23.1
						c0.1-1.8,2.6-2.3,3.4-0.7c2.5,5,7.1,12.5,15,19.1c4.1,3.4,9.1,5.8,14.4,6.9c10,2,18.8,0.9,24.3-0.3
						C100.4,108.1,101.6,110.3,100.2,111.5z"/>
				</g>
				<g>
					<path class="st1" d="M92.3,132c-2.9,0-5.7-0.4-8.5-1.1c-8.3-2.2-16.2-7-21.6-13c-1.1-1.2-1.4-2.9-0.7-4.4
						c0.7-1.5,2.2-2.5,3.8-2.5c0.5,0,0.9,0.1,1.4,0.2c4,1.4,10.5,3,18.2,3h0c1.7,0,3.3-0.1,5-0.2c5-0.5,9.8-2.2,13.9-4.9
						c8.1-5.4,13.3-12.1,16.3-16.7c0.8-1.2,2.1-1.9,3.5-1.9c1.2,0,2.3,0.5,3.1,1.3c0.8,0.8,1.2,1.9,1.1,3
						c-0.4,8.1-3.5,16.7-8.6,23.7C112.8,126.9,102.8,132,92.3,132z"/>
					<path class="st0" d="M125.3,94.6c-0.4,7.3-3.2,15.6-8.2,22.4c-7.5,10.2-20.5,14.8-32.7,11.6c-8.1-2.2-15.5-6.8-20.4-12.3
						c-1.2-1.4,0.2-3.4,1.9-2.8c5.3,1.8,13.9,3.8,24.1,2.9c5.4-0.5,10.5-2.3,15-5.3c8.5-5.7,14-12.7,16.9-17.4
						C123,92.1,125.4,92.8,125.3,94.6z"/>
				</g>
				<g>
					<path class="st1" d="M134.1,114.8c-2,2-4.3,3.8-6.8,5.2c-7.5,4.3-16.4,6.5-24.4,6.1c-1.7-0.1-3-1.1-3.6-2.6
						c-0.6-1.5-0.2-3.3,0.9-4.4c0.3-0.3,0.7-0.6,1.1-0.8c3.8-1.9,9.5-5.3,15-10.7l0,0c1.2-1.2,2.3-2.4,3.4-3.7
						c3.2-3.8,5.4-8.4,6.4-13.3c1.9-9.6,0.9-17.9-0.3-23.3c-0.3-1.4,0.1-2.8,1.1-3.9c0.8-0.8,1.9-1.3,3.1-1.2c1.1,0,2.2,0.5,2.9,1.4
						c5.4,6,9.3,14.3,10.6,22.8C145.1,96.6,141.6,107.3,134.1,114.8z"/>
					<path class="st0" d="M131,65c4.9,5.4,8.7,13.3,10,21.6c2,12.5-4,25-15,31.3c-7.3,4.2-15.8,6.2-23.1,5.8
						c-1.8-0.1-2.3-2.6-0.7-3.4c5-2.5,12.5-7.1,19.1-15c3.4-4.1,5.8-9.1,6.9-14.4c2-10,0.9-18.8-0.3-24.3
						C127.6,64.9,129.8,63.7,131,65z"/>
				</g>
				<g>
					<path class="st1" d="M151.6,73c0,2.9-0.4,5.7-1.1,8.5c-2.2,8.3-7,16.2-13,21.6c-1.2,1.1-2.9,1.4-4.4,0.7
						c-1.5-0.7-2.5-2.2-2.5-3.8c0-0.5,0.1-0.9,0.2-1.4c1.4-4,3-10.5,3-18.2v0c0-1.7-0.1-3.3-0.2-5c-0.5-5-2.2-9.8-4.9-13.9
						c-5.4-8.1-12.1-13.3-16.7-16.3c-1.2-0.8-1.9-2.1-1.9-3.5c0-1.2,0.5-2.3,1.3-3.1c0.8-0.8,1.9-1.2,3-1.1
						c8.1,0.4,16.7,3.5,23.7,8.6C146.5,52.4,151.6,62.4,151.6,73z"/>
					<path class="st0" d="M114.2,40c7.3,0.4,15.6,3.2,22.4,8.2c10.2,7.5,14.8,20.5,11.6,32.7c-2.2,8.1-6.8,15.5-12.3,20.4
						c-1.4,1.2-3.4-0.2-2.8-1.9c1.8-5.3,3.8-13.9,2.9-24.1c-0.5-5.4-2.3-10.5-5.3-15c-5.7-8.5-12.7-14-17.4-16.9
						C111.6,42.3,112.4,39.9,114.2,40z"/>
				</g>
				<g>
					<path class="st1" d="M145.6,62.4c-0.1,1.7-1.1,3-2.6,3.6c-1.5,0.6-3.3,0.2-4.4-0.9c-0.3-0.3-0.6-0.7-0.8-1.1
						c-1.9-3.8-5.3-9.5-10.7-15c-1.2-1.2-2.4-2.3-3.7-3.4c-3.8-3.2-8.4-5.4-13.3-6.4c-9.6-1.9-17.9-0.9-23.3,0.3
						c-1.4,0.3-2.8-0.1-3.8-1.1c-0.6-0.6-1-1.4-1.2-2.2c-0.1-0.3-0.1-0.6-0.1-0.9c0-0.8,0.3-1.6,0.8-2.2c0,0,0,0,0,0
						c0.2-0.2,0.4-0.5,0.6-0.7c6-5.4,14.3-9.3,22.8-10.6c1.7-0.3,3.3-0.4,5-0.4c1.7,0,3.4,0.1,5,0.4c6.9,1,13.4,4.3,18.5,9.3
						c2,2,3.8,4.3,5.2,6.8C143.9,45.4,146.1,54.3,145.6,62.4z"/>
					<path class="st0" d="M84.6,34.2c5.4-4.9,13.3-8.7,21.6-10c12.5-2,25,4,31.3,15c4.2,7.3,6.2,15.8,5.8,23.1
						c-0.1,1.8-2.6,2.3-3.4,0.7c-2.5-5-7.1-12.5-15-19.1c-4.1-3.4-9.1-5.8-14.4-6.9c-10-2-18.8-0.9-24.3,0.3
						C84.4,37.6,83.2,35.4,84.6,34.2z"/>
				</g>
				<g>
					<path class="st1" d="M122.6,27.8c-0.8-0.9-1.7-1.8-2.6-2.6c-1.3-1.2-2.7-2.3-4.2-3.4c-1.7-0.3-3.3-0.4-5-0.4
						c-1.7,0-3.3,0.1-5,0.4C97.3,23.1,89,27,83,32.5c-0.2,0.2-0.4,0.4-0.6,0.7c0,0,0,0,0,0c-0.5,0.7-0.7,1.4-0.8,2.2
						c0,0.3,0,0.6,0.1,0.9c0.8-0.5,1.6-1,2.4-1.4c3.4-1.7,7.1-2.8,10.9-3.2c1.6-0.2,3.3-0.2,5-0.2c7.7,0,14.1,1.6,18.2,3
						c0.4,0.2,0.9,0.2,1.4,0.2c1.6,0,3.1-1,3.8-2.5C124,30.8,123.7,29.1,122.6,27.8z"/>
					<path class="st0" d="M118.9,32.3c-5.3-1.8-13.9-3.8-24.1-2.9c-1.6,0.2-3.3,0.4-4.9,0.8c-2.6,0.7-5.2,1.6-7.6,2.9
						c0.2-0.2,0.4-0.5,0.6-0.7c6-5.4,14.3-9.3,22.8-10.6c1.7-0.3,3.3-0.4,5-0.4c1.4,0.8,2.8,1.7,4.1,2.6c2.2,1.6,4.3,3.4,6,5.4
						C122,30.8,120.6,32.8,118.9,32.3z"/>
					<path class="st0" d="M118.9,32.3c-5.3-1.8-13.9-3.8-24.1-2.9c-1.6,0.2-3.3,0.4-4.9,0.8c-2.6,0.7-5.2,1.6-7.6,2.9
						c0.2-0.2,0.4-0.5,0.6-0.7c6-5.4,14.3-9.3,22.8-10.6c1.7-0.3,3.3-0.4,5-0.4c1.4,0.8,2.8,1.7,4.1,2.6c2.2,1.6,4.3,3.4,6,5.4
						C122,30.8,120.6,32.8,118.9,32.3z"/>
				</g>
				<path class="st0" d="M83.4,32.6c0,0-1.3,0.6-1.7,0.9c-0.3-1,2-4.3,2-4.3l7.4-5l18.2-3.6l1.5,0.8l-1.1,1c0,0-9,2-10.1,2.2
					c-1,0.2-9.1,3.5-9.1,3.5L85.2,31L83.4,32.6z"/>
			</g>
		</g>
		<g>
			<path class="st2" d="M97.1,225.5c-0.5,0.6-1.4,0.5-2,0c0,0,0,0,0,0c-1.1-1.2-1.9-2.5-2.5-4c-0.9-2.4-2.4-6.9-3.6-11.7
				c-0.6-2.6-1.2-5.4-1.5-8.1c-1.1-9.8,0.5-19.6,1.9-24.4c0,0-9.1,16.5-1.8,42.4l0,0c0.3,1.3,0.7,2.8,1.1,4.3
				c0.6,1.8,1.3,3.6,1.9,5.1c1.4,3.6,2.8,6.3,3.7,8.1c0.5,0.9,1.8,0.7,2-0.3c0.9-4.1,3.3-14,3.3-14
				C99.1,223.6,98.1,224.5,97.1,225.5z"/>
			<path class="st2" d="M94.1,159.2c-1.9-2.1-5.3-1.6-6.5,1c-3.1,7.2-4.2,14.9-4.4,24.8c0.2-0.4,2.7-13.7,6-18.5
				c0.6-0.8,1.8-0.6,2.1,0.4c0.9,3.6,2.3,9.2,2.7,20.6c0.8,21.7,0,25.2,0,25.2s2.3-3.7,2.9-26.8c0-1,1.2-1.4,1.9-0.7
				c2,2.2,2.8,7.2,3.1,16c0.4,12.3-0.5,17.2-0.7,18c1.7-6.2,3.1-13.1,3.8-20.7C106.8,179.2,99.7,165.5,94.1,159.2z"/>
		</g>
		<circle class="st2" cx="91.3" cy="149.3" r="3.5"/>
		<g>
			<path class="st2" d="M52.7,203.8c0,0.2,0,0.3,0,0.5h0V203.8L52.7,203.8z"/>
		</g>
		<g>
			<circle class="st2" cx="47.7" cy="131.4" r="3.5"/>
			<path class="st2" d="M50.9,179.8c0,0,5.2-21.3-1.9-39.4c-0.5-1.2-2.1-1.2-2.6-0.1c-2,4.5-5.3,15-4.2,32.5
				c1.5,24.6-7.3,45.1-7.3,45.1s25.6-17.3,25.6-41.7c0-12.3-1.9-19.5-3-20.4c0,0,4.8,28.5-13.5,43c-0.6,0.4-1.5,0-1.3-0.7
				c1-3.8,1.3-21.9,5.9-27.2c0.5-0.6,1.4-0.3,1.6,0.4C50.6,173.2,51.4,176.8,50.9,179.8z"/>
		</g>
		<g>
			<circle class="st2" cx="134.9" cy="131.4" r="3.5"/>
			<path class="st2" d="M131.7,179.8c0,0-5.2-21.3,1.9-39.4c0.5-1.2,2.1-1.2,2.6-0.1c2,4.5,5.3,15,4.2,32.5
				c-1.5,24.6,7.3,45.1,7.3,45.1s-25.6-17.3-25.6-41.7c0-12.3,1.9-19.5,3-20.4c0,0-4.8,28.5,13.5,43c0.6,0.4,1.5,0,1.3-0.7
				c-1-3.8-1.3-21.9-5.9-27.2c-0.5-0.6-1.4-0.3-1.6,0.4C132,173.2,131.2,176.8,131.7,179.8z"/>
		</g>
	</g>
</g>
</svg>
